<?xml version="1.0" encoding="UTF-8" standalone="no"?>
<svg
   xmlns:dc="http://purl.org/dc/elements/1.1/"
   xmlns:cc="http://creativecommons.org/ns#"
   xmlns:rdf="http://www.w3.org/1999/02/22-rdf-syntax-ns#"
   xmlns:svg="http://www.w3.org/2000/svg"
   xmlns="http://www.w3.org/2000/svg"
   xmlns:sodipodi="http://sodipodi.sourceforge.net/DTD/sodipodi-0.dtd"
   xmlns:inkscape="http://www.inkscape.org/namespaces/inkscape"
   sodipodi:docname="tablica2.svg"
   inkscape:version="1.0 (4035a4fb49, 2020-05-01)"
   id="svg855"
   version="1.1"
   viewBox="0 0 40.363945 19.125627"
   height="19.125628mm"
   width="40.363945mm">
  <defs
     id="defs849" />
  <sodipodi:namedview
     inkscape:window-maximized="0"
     inkscape:window-y="43"
     inkscape:window-x="96"
     inkscape:window-height="1041"
     inkscape:window-width="1570"
     fit-margin-bottom="0"
     fit-margin-right="0"
     fit-margin-left="0"
     fit-margin-top="0"
     showgrid="false"
     inkscape:document-rotation="0"
     inkscape:current-layer="layer1"
     inkscape:document-units="mm"
     inkscape:cy="-61.105481"
     inkscape:cx="331.4665"
     inkscape:zoom="1.3859205"
     inkscape:pageshadow="2"
     inkscape:pageopacity="0.0"
     borderopacity="1.0"
     bordercolor="#666666"
     pagecolor="#ffffff"
     id="base" />
  <metadata
     id="metadata852">
    <rdf:RDF>
      <cc:Work
         rdf:about="">
        <dc:format>image/svg+xml</dc:format>
        <dc:type
           rdf:resource="http://purl.org/dc/dcmitype/StillImage" />
        <dc:title></dc:title>
      </cc:Work>
    </rdf:RDF>
  </metadata>
  <g
     transform="translate(-8.863508,-9.3359954)"
     id="layer1"
     inkscape:groupmode="layer"
     inkscape:label="Warstwa 1">
    <rect
       style="fill:#ffffff;fill-opacity:1;stroke:#000000;stroke-width:0.55189;stroke-miterlimit:4;stroke-dasharray:none;stroke-opacity:1"
       id="rect3911"
       y="9.6119699"
       x="9.1395054"
       ry="1.4379708"
       height="18.573708"
       width="39.812004" />
    <path
       style="fill:#003399;fill-opacity:1;fill-rule:evenodd;stroke:#003399;stroke-width:0.264583px;stroke-linecap:butt;stroke-linejoin:miter;stroke-opacity:1"
       id="path3913"
       d="M 17.685522,9.8032478 V 28.044392 h -7.0224 c -0.8268301,-0.0032 -1.2467801,-0.41312 -1.3612301,-1.128607 l 0.0249,-15.709373 c 0.10025,-0.835189 0.52352,-1.3473692 1.3363501,-1.4699802 z" />
    <path
       style="font-style:normal;font-weight:normal;font-size:17.186px;font-family:'Bitstream Vera Sans';fill:#ffffff;fill-opacity:1;stroke:#ffffff;stroke-width:0.11335;stroke-linecap:butt;stroke-linejoin:miter;stroke-miterlimit:4;stroke-opacity:1"
       id="path3935"
       d="m 11.921242,21.646688 v 1.13538 h 0.66935 c 0.16733,0 0.29215,-0.05959 0.37446,-0.178753 0.0823,-0.119195 0.12346,-0.248814 0.12346,-0.388937 0,-0.212567 -0.0646,-0.368803 -0.19386,-0.46863 -0.083,-0.06604 -0.18979,-0.09906 -0.32039,-0.09906 z m -0.45099,3.014768 V 21.14181 h 1.07952 c 0.11564,0 0.22686,0.01455 0.33366,0.0435 0.10679,0.02897 0.21801,0.09663 0.33365,0.202909 0.0898,0.08213 0.16597,0.195263 0.22855,0.339408 0.0626,0.144145 0.0939,0.311229 0.0939,0.501253 -10e-6,0.251222 -0.0793,0.490379 -0.23774,0.717444 -0.1585,0.227092 -0.39012,0.340625 -0.69486,0.340625 h -0.68567 v 1.37451 z m 2.48147,0 V 21.14181 h 0.45099 v 3.017202 h 1.45093 v 0.502444 z" />
    <rect
       style="fill:none;stroke:#000000;stroke-width:0.549294;stroke-miterlimit:4;stroke-dasharray:none;stroke-opacity:1"
       id="rect3937"
       y="9.6106424"
       x="9.138155"
       ry="1.4381717"
       height="18.576302"
       width="39.432785" />
    <g
       id="g3175"
       transform="matrix(0.26458333,0,0,0.26458333,14.194352,-242.77516)">
      <rect
         style="fill:#ffffff"
         id="rect3744"
         y="968.02771"
         x="-14.742744"
         height="8.214818"
         width="26.287418" />
      <rect
         style="fill:#dc143c"
         id="rect3746"
         y="976.24249"
         x="-14.742744"
         height="8.214818"
         width="26.287418" />
    </g>
  </g>
</svg>
