<?xml version="1.0" encoding="UTF-8" standalone="no"?>
<svg
   xmlns:dc="http://purl.org/dc/elements/1.1/"
   xmlns:cc="http://creativecommons.org/ns#"
   xmlns:rdf="http://www.w3.org/1999/02/22-rdf-syntax-ns#"
   xmlns:svg="http://www.w3.org/2000/svg"
   xmlns="http://www.w3.org/2000/svg"
   xmlns:sodipodi="http://sodipodi.sourceforge.net/DTD/sodipodi-0.dtd"
   xmlns:inkscape="http://www.inkscape.org/namespaces/inkscape"
   sodipodi:docname="tablica2.svg"
   inkscape:version="1.0 (4035a4fb49, 2020-05-01)"
   id="svg855"
   version="1.1"
   viewBox="0 0 42.654842 19.125627"
   height="19.125628mm"
   width="42.654842mm">
  <defs
     id="defs849" />
  <sodipodi:namedview
     inkscape:window-maximized="0"
     inkscape:window-y="43"
     inkscape:window-x="96"
     inkscape:window-height="1041"
     inkscape:window-width="1570"
     fit-margin-bottom="0"
     fit-margin-right="0"
     fit-margin-left="0"
     fit-margin-top="0"
     showgrid="false"
     inkscape:document-rotation="0"
     inkscape:current-layer="layer1"
     inkscape:document-units="mm"
     inkscape:cy="-61.105481"
     inkscape:cx="331.4665"
     inkscape:zoom="1.3859205"
     inkscape:pageshadow="2"
     inkscape:pageopacity="0.0"
     borderopacity="1.0"
     bordercolor="#666666"
     pagecolor="#ffffff"
     id="base" />
  <metadata
     id="metadata852">
    <rdf:RDF>
      <cc:Work
         rdf:about="">
        <dc:format>image/svg+xml</dc:format>
        <dc:type
           rdf:resource="http://purl.org/dc/dcmitype/StillImage" />
        <dc:title></dc:title>
      </cc:Work>
    </rdf:RDF>
  </metadata>
  <g
     transform="translate(-8.863508,-9.3359954)"
     id="layer1"
     inkscape:groupmode="layer"
     inkscape:label="Warstwa 1">
    <rect
       style="fill:#ffffff;fill-opacity:1;stroke:#000000;stroke-width:0.567209;stroke-miterlimit:4;stroke-dasharray:none;stroke-opacity:1"
       id="rect3911"
       y="9.6196299"
       x="9.1471653"
       ry="1.4367847"
       height="18.558388"
       width="42.087582" />
    <path
       style="fill:#003399;fill-opacity:1;fill-rule:evenodd;stroke:#003399;stroke-width:0.264583px;stroke-linecap:butt;stroke-linejoin:miter;stroke-opacity:1"
       id="path3913"
       d="M 17.685522,9.8032478 V 28.044392 h -7.0224 c -0.8268301,-0.0032 -1.2467801,-0.41312 -1.3612301,-1.128607 l 0.0249,-15.709373 c 0.10025,-0.835189 0.52352,-1.3473692 1.3363501,-1.4699802 z" />
    <path
       style="font-style:normal;font-weight:normal;font-size:17.186px;font-family:'Bitstream Vera Sans';fill:#ffffff;fill-opacity:1;stroke:#ffffff;stroke-width:0.11335;stroke-linecap:butt;stroke-linejoin:miter;stroke-miterlimit:4;stroke-opacity:1"
       id="path3935"
       d="m 11.921242,21.646688 v 1.13538 h 0.66935 c 0.16733,0 0.29215,-0.05959 0.37446,-0.178753 0.0823,-0.119195 0.12346,-0.248814 0.12346,-0.388937 0,-0.212567 -0.0646,-0.368803 -0.19386,-0.46863 -0.083,-0.06604 -0.18979,-0.09906 -0.32039,-0.09906 z m -0.45099,3.014768 V 21.14181 h 1.07952 c 0.11564,0 0.22686,0.01455 0.33366,0.0435 0.10679,0.02897 0.21801,0.09663 0.33365,0.202909 0.0898,0.08213 0.16597,0.195263 0.22855,0.339408 0.0626,0.144145 0.0939,0.311229 0.0939,0.501253 -10e-6,0.251222 -0.0793,0.490379 -0.23774,0.717444 -0.1585,0.227092 -0.39012,0.340625 -0.69486,0.340625 h -0.68567 v 1.37451 z m 2.48147,0 V 21.14181 h 0.45099 v 3.017202 h 1.45093 v 0.502444 z" />
    <rect
       style="fill:none;stroke:#000000;stroke-width:0.565949;stroke-miterlimit:4;stroke-dasharray:none;stroke-opacity:1"
       id="rect3937"
       y="9.6189699"
       x="9.1464825"
       ry="1.4368823"
       height="18.559647"
       width="41.897934" />
    <g
       id="g3939"
       transform="matrix(0.04529685,0,0,0.04529685,14.956202,-7.4647022)">
      <rect
         style="fill:#73777a;fill-opacity:1;stroke:#757578;stroke-width:1.03871;stroke-miterlimit:4;stroke-dasharray:none;stroke-opacity:1"
         id="rect3941"
         y="519.38391"
         x="688.73718"
         ry="9.8512506"
         rx="10.84693"
         height="115.69246"
         width="69.332703" />
      <path
         style="fill:#c8cbc0;fill-opacity:1;fill-rule:evenodd;stroke:#73777a;stroke-width:0.766008px;stroke-linecap:butt;stroke-linejoin:miter;stroke-opacity:1"
         id="path3943"
         d="m 758.17087,561.8437 -3.1e-4,31.18659 c -0.26929,0 -1.83513,0 -2.7899,0 -1.75063,-0.38807 -2.43526,-2.66185 -4.53358,-2.00873 -1.93486,1.24527 -2.27239,2.35747 -4.75172,2.35747 -1.51952,0 -2.41338,-0.52953 -3.03675,-1.77625 -0.73052,-1.46106 -1.01416,-2.09242 -3.13863,-2.09242 -3.03034,0.36048 -4.94114,2.37303 -8.02096,2.32491 -2.189,-0.41001 -3.34444,-1.79432 -4.0686,-4.0686 -0.67717,-1.12862 -1.58367,-1.39494 -3.02238,-1.39494 -1.43871,0 -1.17682,3.5e-4 -2.61553,3.5e-4 -1.43871,0 -2.34521,0.26631 -3.02239,1.39494 -0.72415,2.27428 -1.8796,3.65859 -4.0686,4.06861 -3.07982,0.0481 -4.99062,-1.96445 -8.02095,-2.32492 -2.12447,0 -2.40811,0.63136 -3.13864,2.09243 -0.62336,1.2467 -1.51722,1.77625 -3.03675,1.77625 -2.47933,0 -2.81685,-1.11221 -4.75172,-2.35748 -2.09831,-0.65312 -2.78295,1.62065 -4.53358,2.00873 -0.95477,0 -2.70555,0 -2.97484,0 l 3e-4,-31.18729 c 0.2693,0 2.02008,0 2.97485,0 1.75063,0.38808 2.43526,2.66185 4.53358,2.00873 1.93486,-1.24527 2.27239,-2.35748 4.75172,-2.35748 1.51952,0 2.41339,0.52955 3.03675,1.77625 0.73052,1.46107 1.01416,2.09243 3.13863,2.09243 3.03034,-0.36047 4.94114,-2.37303 8.02096,-2.32492 2.189,0.41002 3.34445,1.79433 4.0686,4.06861 0.67717,1.12863 1.58368,1.39494 3.02238,1.39494 1.43871,0 1.17682,3.5e-4 2.61553,3.5e-4 1.43871,0 2.34521,-0.26632 3.02239,-1.39494 0.72415,-2.27428 1.8796,-3.65859 4.0686,-4.0686 3.07982,-0.0481 4.99062,1.96443 8.02096,2.32491 2.12447,0 2.4081,-0.63136 3.13863,-2.09242 0.62336,-1.24672 1.51723,-1.77625 3.03675,-1.77625 2.47933,0 2.81686,1.1122 4.75172,2.35747 2.09832,0.65312 2.78295,-1.62066 4.53358,-2.00873 0.95477,0 2.5206,0 2.7899,0 z" />
      <g
         id="g3945"
         transform="matrix(0.7660083,0,0,0.7660083,395.14398,182.68066)">
        <g
           style="stroke:#73777a;stroke-opacity:1"
           id="g3947">
          <g
             style="stroke:#73777a;stroke-opacity:1"
             id="g3949">
            <path
               style="fill:none;stroke:#73777a;stroke-width:1px;stroke-linecap:butt;stroke-linejoin:miter;stroke-opacity:1"
               id="path3951"
               transform="translate(5.5279208,5.095195)"
               d="m 438.42923,506.69425 c 1.0496,1.70924 1.25778,3.54864 7.57077,3.59575 h 4 c 2.30622,-0.0883 6.82783,-5.24692 12,-10 l 3.53654,3.89269 c -1.69103,-1.50503 -3.38205,-3.64218 -5.07308,-2.42923" />
            <path
               style="fill:none;stroke:#73777a;stroke-width:1px;stroke-linecap:butt;stroke-linejoin:miter;stroke-opacity:1"
               id="path3953"
               transform="translate(5.5279208,5.095195)"
               d="m 426.14043,497.8922 c 2.41544,-0.0888 6.85089,4.52581 10.14355,6.76974" />
          </g>
          <path
             style="fill:none;stroke:#73777a;stroke-width:1px;stroke-linecap:butt;stroke-linejoin:miter;stroke-opacity:1"
             id="path3955"
             transform="translate(5.5279208,5.095195)"
             d="m 435,504.29 5,-4 c 3.27852,-1.76355 5.56978,-0.59735 7,3 0.80789,3.13684 -0.49617,6.45579 -3.53653,6.89269" />
        </g>
        <path
           style="fill:none;stroke:#73777a;stroke-width:1px;stroke-linecap:butt;stroke-linejoin:miter;stroke-opacity:1"
           id="path3957"
           d="m 431.66835,502.98739 c 2.41544,-0.0888 6.85089,4.52581 10.14355,6.76975" />
        <path
           style="fill:none;stroke:#73777a;stroke-width:1px;stroke-linecap:butt;stroke-linejoin:miter;stroke-opacity:1"
           id="path3959"
           d="m 416.62745,509.3852 -5,-4 c -3.27852,-1.76355 -5.56978,-0.59735 -7,3 -0.80789,3.13684 0.49617,6.45579 3.53653,6.89269" />
        <path
           style="fill:none;stroke:#73777a;stroke-width:1px;stroke-linecap:butt;stroke-linejoin:miter;stroke-opacity:1"
           id="path3961"
           d="m 391.001,506.84866 c -1.69103,-1.21296 -3.38205,0.92419 -5.07308,2.42922 l 3.53654,-3.89268 c 5.17217,4.75307 9.69378,9.91168 12,10 h 4 c 6.31299,-0.0471 6.52117,-1.88651 7.57077,-3.59575 2.02962,-3.48323 4.91769,-2.36138 6.51808,-0.42924 2.96808,3.19333 4.04405,-0.48919 5.91115,-1.97501 1.8671,-1.48582 4.19636,-1.48582 6.06346,0 1.8671,1.48582 2.94307,5.16834 5.91115,1.97501 1.60039,-1.93214 4.48846,-3.05399 6.51808,0.42924 1.0496,1.70924 1.25778,3.54863 7.57077,3.59575 h 4 c 2.30622,-0.0883 6.82783,-5.24693 12,-10 l 3.53654,3.89268 c -1.69103,-1.50503 -3.38205,-3.64218 -5.07308,-2.42922" />
        <path
           style="fill:none;stroke:#73777a;stroke-width:1px;stroke-linecap:butt;stroke-linejoin:miter;stroke-opacity:1"
           id="path3963"
           d="m 425.42747,502.98745 c -2.41544,-0.0888 -6.85089,4.52581 -10.14355,6.76975" />
      </g>
      <g
         id="g3965"
         transform="matrix(0.7660083,0,0,-0.7660083,395.14398,972.4124)">
        <g
           style="stroke:#73777a;stroke-opacity:1"
           id="g3967">
          <g
             style="stroke:#73777a;stroke-opacity:1"
             id="g3969">
            <path
               style="fill:none;stroke:#73777a;stroke-width:1px;stroke-linecap:butt;stroke-linejoin:miter;stroke-opacity:1"
               id="path3971"
               transform="translate(5.5279208,5.095195)"
               d="m 438.42923,506.69425 c 1.0496,1.70924 1.25778,3.54864 7.57077,3.59575 h 4 c 2.30622,-0.0883 6.82783,-5.24692 12,-10 l 3.53654,3.89269 c -1.69103,-1.50503 -3.38205,-3.64218 -5.07308,-2.42923" />
            <path
               style="fill:none;stroke:#73777a;stroke-width:1px;stroke-linecap:butt;stroke-linejoin:miter;stroke-opacity:1"
               id="path3973"
               transform="translate(5.5279208,5.095195)"
               d="m 426.14043,497.8922 c 2.41544,-0.0888 6.85089,4.52581 10.14355,6.76974" />
          </g>
          <path
             style="fill:none;stroke:#73777a;stroke-width:1px;stroke-linecap:butt;stroke-linejoin:miter;stroke-opacity:1"
             id="path3975"
             transform="translate(5.5279208,5.095195)"
             d="m 435,504.29 5,-4 c 3.27852,-1.76355 5.56978,-0.59735 7,3 0.80789,3.13684 -0.49617,6.45579 -3.53653,6.89269" />
        </g>
        <path
           style="fill:none;stroke:#73777a;stroke-width:1px;stroke-linecap:butt;stroke-linejoin:miter;stroke-opacity:1"
           id="path3977"
           d="m 431.66835,502.98739 c 2.41544,-0.0888 6.85089,4.52581 10.14355,6.76975" />
        <path
           style="fill:none;stroke:#73777a;stroke-width:1px;stroke-linecap:butt;stroke-linejoin:miter;stroke-opacity:1"
           id="path3979"
           d="m 416.62745,509.3852 -5,-4 c -3.27852,-1.76355 -5.56978,-0.59735 -7,3 -0.80789,3.13684 0.49617,6.45579 3.53653,6.89269" />
        <path
           style="fill:none;stroke:#73777a;stroke-width:1px;stroke-linecap:butt;stroke-linejoin:miter;stroke-opacity:1"
           id="path3981"
           d="m 391.001,506.84866 c -1.69103,-1.21296 -3.38205,0.92419 -5.07308,2.42922 l 3.53654,-3.89268 c 5.17217,4.75307 9.69378,9.91168 12,10 h 4 c 6.31299,-0.0471 6.52117,-1.88651 7.57077,-3.59575 2.02962,-3.48323 4.91769,-2.36138 6.51808,-0.42924 2.96808,3.19333 4.04405,-0.48919 5.91115,-1.97501 1.8671,-1.48582 4.19636,-1.48582 6.06346,0 1.8671,1.48582 2.94307,5.16834 5.91115,1.97501 1.60039,-1.93214 4.48846,-3.05399 6.51808,0.42924 1.0496,1.70924 1.25778,3.54863 7.57077,3.59575 h 4 c 2.30622,-0.0883 6.82783,-5.24693 12,-10 l 3.53654,3.89268 c -1.69103,-1.50503 -3.38205,-3.64218 -5.07308,-2.42922" />
        <path
           style="fill:none;stroke:#73777a;stroke-width:1px;stroke-linecap:butt;stroke-linejoin:miter;stroke-opacity:1"
           id="path3983"
           d="m 425.42747,502.98745 c -2.41544,-0.0888 -6.85089,4.52581 -10.14355,6.76975" />
      </g>
      <path
         style="font-style:normal;font-weight:normal;font-size:16.3987px;font-family:'Book Antiqua';writing-mode:lr-tb;fill:#4d4d4d;fill-opacity:1;stroke:none"
         id="path3985"
         d="m 708.37986,587.36061 h -8.99179 v -3.37346 c 10e-6,-0.68695 0.091,-1.23795 0.27295,-1.65299 0.18196,-0.41503 0.46206,-0.74011 0.84029,-0.97524 0.37824,-0.23511 0.77386,-0.35267 1.18684,-0.35267 0.38438,0 0.74626,0.10427 1.08564,0.3128 0.3394,0.20856 0.61336,0.52341 0.8219,0.94458 0.15947,-0.54384 0.4314,-0.96194 0.81576,-1.25432 0.38437,-0.29236 0.83826,-0.43854 1.36165,-0.43855 0.42117,1e-5 0.81269,0.0889 1.17458,0.26681 0.36188,0.17788 0.64095,0.39767 0.83722,0.65936 0.19628,0.2617 0.34451,0.58985 0.44469,0.98443 0.10018,0.3946 0.15027,0.87813 0.15027,1.45059 z m -5.21352,-1.18991 v -1.94434 c 10e-6,-0.52748 -0.0348,-0.90572 -0.10427,-1.13471 -0.0899,-0.30258 -0.2392,-0.53055 -0.44775,-0.68389 -0.20853,-0.15333 -0.47023,-0.23 -0.78509,-0.23 -0.2985,0 -0.56122,0.0716 -0.78816,0.21467 -0.22694,0.14312 -0.38233,0.34757 -0.46616,0.61335 -0.0838,0.2658 -0.12572,0.72173 -0.12573,1.36778 v 1.79714 z m 4.15242,0 v -2.23875 c 0,-0.38436 -0.0143,-0.65424 -0.0429,-0.80963 -0.0491,-0.27396 -0.13085,-0.50295 -0.24534,-0.68696 -0.11449,-0.184 -0.28112,-0.33529 -0.49988,-0.45388 -0.21877,-0.11858 -0.47127,-0.17787 -0.7575,-0.17787 -0.3353,0 -0.62664,0.0859 -0.87403,0.25761 -0.24739,0.17174 -0.42117,0.40992 -0.52136,0.71456 -0.10017,0.30463 -0.15026,0.74318 -0.15026,1.31564 v 2.07928 h 3.09131 z m -6.75305,-6.87572 h -1.0611 v -5.82074 h 0.8587 c 0.60927,0.57247 1.4189,1.13983 2.42888,1.70206 1.01,0.56225 2.04861,0.99671 3.11585,1.30338 0.75239,0.22081 1.57632,0.36189 2.47182,0.42322 v 1.1347 c -0.7074,-0.0123 -1.56201,-0.15129 -2.56383,-0.41708 -1.00181,-0.26578 -1.96784,-0.64709 -2.8981,-1.1439 -0.93025,-0.49682 -1.71432,-1.02533 -2.35222,-1.58553 z m 0,-6.99225 h -1.0611 v -5.82074 h 0.8587 c 0.60927,0.57247 1.4189,1.13982 2.42888,1.70206 1.01,0.56225 2.04861,0.9967 3.11585,1.30338 0.75239,0.22081 1.57632,0.36188 2.47182,0.42322 v 1.1347 c -0.7074,-0.0123 -1.56201,-0.15129 -2.56383,-0.41708 -1.00181,-0.26579 -1.96784,-0.64708 -2.8981,-1.14391 -0.93025,-0.49681 -1.71432,-1.02532 -2.35222,-1.58552 z" />
      <path
         style="fill:#c8cbc0;fill-opacity:1;fill-rule:evenodd;stroke:#73777a;stroke-width:0.766008px;stroke-linecap:butt;stroke-linejoin:miter;stroke-opacity:1"
         id="path3987"
         d="m 758.17118,529.05494 -2.8e-4,24.39623 c -0.2693,0 -1.83513,0 -2.7899,0 -1.75063,-0.38807 -2.43526,-2.66185 -4.53358,-2.00873 -1.93486,1.24527 -2.27239,2.35747 -4.75172,2.35747 -1.51952,0 -2.41339,-0.52953 -3.03675,-1.77625 -0.73053,-1.46106 -1.01416,-2.09242 -3.13863,-2.09242 -3.03034,0.36048 -4.94114,2.37303 -8.02096,2.32491 -2.189,-0.41001 -3.34445,-1.79433 -4.0686,-4.0686 -0.67718,-1.12863 -1.58368,-1.39494 -3.02239,-1.39494 -1.43871,0 -1.17682,3.5e-4 -2.61552,3.5e-4 -1.43871,0 -2.34522,0.26631 -3.02239,1.39494 -0.72415,2.27428 -1.8796,3.65859 -4.0686,4.06861 -3.07982,0.0481 -4.99062,-1.96445 -8.02096,-2.32492 -2.12447,0 -2.4081,0.63135 -3.13863,2.09242 -0.62336,1.24671 -1.51723,1.77625 -3.03675,1.77625 -2.47933,0 -2.81686,-1.1122 -4.75172,-2.35747 -2.09832,-0.65312 -2.78295,1.62065 -4.53358,2.00873 -0.95477,0 -2.70555,0 -2.97485,0 l 2.7e-4,-24.57233 c 0.24728,-3.8969 2.35116,-5.87517 3.05709,-6.53276 1.75062,0.38808 2.35306,2.57965 4.45138,1.92653 1.93486,-1.24527 2.27239,-2.35748 4.75172,-2.35748 1.51952,0 2.41338,0.52954 3.03674,1.77625 0.73053,1.46107 1.01417,2.09242 3.13864,2.09242 3.03034,-0.36046 4.94114,-2.37302 8.02096,-2.32491 2.189,0.41002 3.34444,1.79433 4.0686,4.06861 0.67717,1.12863 1.58367,1.39494 3.02238,1.39494 1.43871,0 1.17682,3.5e-4 2.61553,3.5e-4 1.43871,0 2.34521,-0.26632 3.02239,-1.39495 0.72415,-2.27427 1.8796,-3.65858 4.06859,-4.0686 3.07983,-0.0481 4.99063,1.96444 8.02096,2.32492 2.12447,0 2.40811,-0.63136 3.13864,-2.09242 0.62336,-1.24672 1.51722,-1.77626 3.03675,-1.77626 2.47933,0 2.81685,1.11221 4.75171,2.35748 2.09832,0.65312 2.53636,-1.41516 4.28699,-1.80324 1.94102,1.60386 2.88934,4.03746 3.03647,6.58487 z" />
      <g
         id="g3989"
         transform="matrix(0.7660083,0,0,0.7660083,395.14432,143.10154)">
        <g
           style="stroke:#73777a;stroke-opacity:1"
           id="g3991">
          <g
             style="stroke:#73777a;stroke-opacity:1"
             id="g3993">
            <path
               style="fill:none;stroke:#73777a;stroke-width:1px;stroke-linecap:butt;stroke-linejoin:miter;stroke-opacity:1"
               id="path3995"
               transform="translate(5.5279208,5.095195)"
               d="m 438.42923,506.69425 c 1.0496,1.70924 1.25778,3.54864 7.57077,3.59575 h 4 c 2.30622,-0.0883 6.82783,-5.24692 12,-10 l 3.53654,3.89269 c -1.69103,-1.50503 -3.38205,-3.64218 -5.07308,-2.42923" />
            <path
               style="fill:none;stroke:#73777a;stroke-width:1px;stroke-linecap:butt;stroke-linejoin:miter;stroke-opacity:1"
               id="path3997"
               transform="translate(5.5279208,5.095195)"
               d="m 426.14043,497.8922 c 2.41544,-0.0888 6.85089,4.52581 10.14355,6.76974" />
          </g>
          <path
             style="fill:none;stroke:#73777a;stroke-width:1px;stroke-linecap:butt;stroke-linejoin:miter;stroke-opacity:1"
             id="path3999"
             transform="translate(5.5279208,5.095195)"
             d="m 435,504.29 5,-4 c 3.27852,-1.76355 5.56978,-0.59735 7,3 0.80789,3.13684 -0.49617,6.45579 -3.53653,6.89269" />
        </g>
        <path
           style="fill:none;stroke:#73777a;stroke-width:1px;stroke-linecap:butt;stroke-linejoin:miter;stroke-opacity:1"
           id="path4001"
           d="m 431.66835,502.98739 c 2.41544,-0.0888 6.85089,4.52581 10.14355,6.76975" />
        <path
           style="fill:none;stroke:#73777a;stroke-width:1px;stroke-linecap:butt;stroke-linejoin:miter;stroke-opacity:1"
           id="path4003"
           d="m 416.62745,509.3852 -5,-4 c -3.27852,-1.76355 -5.56978,-0.59735 -7,3 -0.80789,3.13684 0.49617,6.45579 3.53653,6.89269" />
        <path
           style="fill:none;stroke:#73777a;stroke-width:1px;stroke-linecap:butt;stroke-linejoin:miter;stroke-opacity:1"
           id="path4005"
           d="m 391.001,506.84866 c -1.69103,-1.21296 -3.38205,0.92419 -5.07308,2.42922 l 3.53654,-3.89268 c 5.17217,4.75307 9.69378,9.91168 12,10 h 4 c 6.31299,-0.0471 6.52117,-1.88651 7.57077,-3.59575 2.02962,-3.48323 4.91769,-2.36138 6.51808,-0.42924 2.96808,3.19333 4.04405,-0.48919 5.91115,-1.97501 1.8671,-1.48582 4.19636,-1.48582 6.06346,0 1.8671,1.48582 2.94307,5.16834 5.91115,1.97501 1.60039,-1.93214 4.48846,-3.05399 6.51808,0.42924 1.0496,1.70924 1.25778,3.54863 7.57077,3.59575 h 4 c 2.30622,-0.0883 6.82783,-5.24693 12,-10 l 3.53654,3.89268 c -1.69103,-1.50503 -3.38205,-3.64218 -5.07308,-2.42922" />
        <path
           style="fill:none;stroke:#73777a;stroke-width:1px;stroke-linecap:butt;stroke-linejoin:miter;stroke-opacity:1"
           id="path4007"
           d="m 425.42747,502.98745 c -2.41544,-0.0888 -6.85089,4.52581 -10.14355,6.76975" />
      </g>
      <g
         id="g4009"
         transform="matrix(0.7660083,0,0,-0.7660083,395.14432,932.83328)">
        <g
           style="stroke:#73777a;stroke-opacity:1"
           id="g4011">
          <g
             style="stroke:#73777a;stroke-opacity:1"
             id="g4013">
            <path
               style="fill:none;stroke:#73777a;stroke-width:1px;stroke-linecap:butt;stroke-linejoin:miter;stroke-opacity:1"
               id="path4015"
               transform="translate(5.5279208,5.095195)"
               d="m 438.42923,506.69425 c 1.0496,1.70924 1.25778,3.54864 7.57077,3.59575 h 4 c 2.30622,-0.0883 6.82783,-5.24692 12,-10 l 3.53654,3.89269 c -1.69103,-1.50503 -3.38205,-3.64218 -5.07308,-2.42923" />
            <path
               style="fill:none;stroke:#73777a;stroke-width:1px;stroke-linecap:butt;stroke-linejoin:miter;stroke-opacity:1"
               id="path4017"
               transform="translate(5.5279208,5.095195)"
               d="m 426.14043,497.8922 c 2.41544,-0.0888 6.85089,4.52581 10.14355,6.76974" />
          </g>
          <path
             style="fill:none;stroke:#73777a;stroke-width:1px;stroke-linecap:butt;stroke-linejoin:miter;stroke-opacity:1"
             id="path4019"
             transform="translate(5.5279208,5.095195)"
             d="m 435,504.29 5,-4 c 3.27852,-1.76355 5.56978,-0.59735 7,3 0.80789,3.13684 -0.49617,6.45579 -3.53653,6.89269" />
        </g>
        <path
           style="fill:none;stroke:#73777a;stroke-width:1px;stroke-linecap:butt;stroke-linejoin:miter;stroke-opacity:1"
           id="path4021"
           d="m 431.66835,502.98739 c 2.41544,-0.0888 6.85089,4.52581 10.14355,6.76975" />
        <path
           style="fill:none;stroke:#73777a;stroke-width:1px;stroke-linecap:butt;stroke-linejoin:miter;stroke-opacity:1"
           id="path4023"
           d="m 416.62745,509.3852 -5,-4 c -3.27852,-1.76355 -5.56978,-0.59735 -7,3 -0.80789,3.13684 0.49617,6.45579 3.53653,6.89269" />
        <path
           style="fill:none;stroke:#73777a;stroke-width:1px;stroke-linecap:butt;stroke-linejoin:miter;stroke-opacity:1"
           id="path4025"
           d="m 391.001,506.84866 c -1.69103,-1.21296 -3.38205,0.92419 -5.07308,2.42922 l 3.53654,-3.89268 c 5.17217,4.75307 9.69378,9.91168 12,10 h 4 c 6.31299,-0.0471 6.52117,-1.88651 7.57077,-3.59575 2.02962,-3.48323 4.91769,-2.36138 6.51808,-0.42924 2.96808,3.19333 4.04405,-0.48919 5.91115,-1.97501 1.8671,-1.48582 4.19636,-1.48582 6.06346,0 1.8671,1.48582 2.94307,5.16834 5.91115,1.97501 1.60039,-1.93214 4.48846,-3.05399 6.51808,0.42924 1.0496,1.70924 1.25778,3.54863 7.57077,3.59575 h 4 c 2.30622,-0.0883 6.82783,-5.24693 12,-10 l 3.53654,3.89268 c -1.69103,-1.50503 -3.38205,-3.64218 -5.07308,-2.42922" />
        <path
           style="fill:none;stroke:#73777a;stroke-width:1px;stroke-linecap:butt;stroke-linejoin:miter;stroke-opacity:1"
           id="path4027"
           d="m 425.42747,502.98745 c -2.41544,-0.0888 -6.85089,4.52581 -10.14355,6.76975" />
      </g>
      <path
         style="fill:#c8cbc0;fill-opacity:1;fill-rule:evenodd;stroke:#73777a;stroke-width:0.766008px;stroke-linecap:butt;stroke-linejoin:miter;stroke-opacity:1"
         id="path4029"
         d="m 758.17121,601.74951 -2.8e-4,22.29271 c 0.16919,3.61906 -1.01006,6.30742 -3.54553,8.5742 -1.75063,-0.38808 -1.67966,-2.34217 -3.77798,-1.68905 -1.93486,1.24526 -2.27239,2.35747 -4.75172,2.35747 -1.51952,0 -2.41339,-0.52954 -3.03675,-1.77625 -0.73053,-1.46106 -1.01416,-2.09243 -3.13863,-2.09243 -3.03034,0.36048 -4.94114,2.37304 -8.02096,2.32492 -2.189,-0.41001 -3.34445,-1.79433 -4.0686,-4.0686 -0.67718,-1.12863 -1.58368,-1.39494 -3.02239,-1.39494 -1.43871,0 -1.17682,3.5e-4 -2.61552,3.5e-4 -1.43871,0 -2.34522,0.26631 -3.02239,1.39494 -0.72415,2.27427 -1.8796,3.65858 -4.0686,4.0686 -3.07982,0.0481 -4.99062,-1.96445 -8.02096,-2.32491 -2.12447,0 -2.4081,0.63136 -3.13863,2.09242 -0.62336,1.24671 -1.51723,1.77626 -3.03675,1.77626 -2.47933,0 -2.81686,-1.11221 -4.75172,-2.35749 -2.09832,-0.65311 -1.99829,1.44628 -3.74892,1.83436 -3.19768,-2.60906 -3.80908,-6.00279 -3.75948,-7.8272 l 2.8e-4,-23.18571 c 0.2693,0 2.02008,0 2.97485,0 1.75062,0.38808 2.43526,2.66185 4.53358,2.00872 1.93486,-1.24526 2.27239,-2.35747 4.75172,-2.35747 1.51952,0 2.41338,0.52954 3.03674,1.77625 0.73053,1.46107 1.01417,2.09242 3.13864,2.09242 3.03034,-0.36047 4.94114,-2.37303 8.02096,-2.32492 2.189,0.41002 3.34444,1.79433 4.0686,4.06862 0.67717,1.12863 1.58367,1.39494 3.02238,1.39494 1.43871,0 1.17682,3.5e-4 2.61553,3.5e-4 1.43871,0 2.34521,-0.26632 3.02239,-1.39495 0.72415,-2.27427 1.8796,-3.65858 4.06859,-4.0686 3.07983,-0.0481 4.99063,1.96443 8.02096,2.32492 2.12447,0 2.40811,-0.63136 3.13864,-2.09242 0.62336,-1.24673 1.51722,-1.77626 3.03675,-1.77626 2.47933,0 2.81685,1.11221 4.75171,2.35748 2.09832,0.65312 2.78296,-1.62066 4.53359,-2.00873 0.95476,0 2.5206,0 2.7899,0 z" />
      <g
         id="g4031"
         transform="matrix(0.7660083,0,0,0.7660083,395.14432,222.58647)">
        <g
           style="stroke:#73777a;stroke-opacity:1"
           id="g4033">
          <g
             style="stroke:#73777a;stroke-opacity:1"
             id="g4035">
            <path
               style="fill:none;stroke:#73777a;stroke-width:1px;stroke-linecap:butt;stroke-linejoin:miter;stroke-opacity:1"
               id="path4037"
               transform="translate(5.5279208,5.095195)"
               d="m 438.42923,506.69425 c 1.0496,1.70924 1.25778,3.54864 7.57077,3.59575 h 4 c 2.30622,-0.0883 6.82783,-5.24692 12,-10 l 3.53654,3.89269 c -1.69103,-1.50503 -3.38205,-3.64218 -5.07308,-2.42923" />
            <path
               style="fill:none;stroke:#73777a;stroke-width:1px;stroke-linecap:butt;stroke-linejoin:miter;stroke-opacity:1"
               id="path4039"
               transform="translate(5.5279208,5.095195)"
               d="m 426.14043,497.8922 c 2.41544,-0.0888 6.85089,4.52581 10.14355,6.76974" />
          </g>
          <path
             style="fill:none;stroke:#73777a;stroke-width:1px;stroke-linecap:butt;stroke-linejoin:miter;stroke-opacity:1"
             id="path4041"
             transform="translate(5.5279208,5.095195)"
             d="m 435,504.29 5,-4 c 3.27852,-1.76355 5.56978,-0.59735 7,3 0.80789,3.13684 -0.49617,6.45579 -3.53653,6.89269" />
        </g>
        <path
           style="fill:none;stroke:#73777a;stroke-width:1px;stroke-linecap:butt;stroke-linejoin:miter;stroke-opacity:1"
           id="path4043"
           d="m 431.66835,502.98739 c 2.41544,-0.0888 6.85089,4.52581 10.14355,6.76975" />
        <path
           style="fill:none;stroke:#73777a;stroke-width:1px;stroke-linecap:butt;stroke-linejoin:miter;stroke-opacity:1"
           id="path4045"
           d="m 416.62745,509.3852 -5,-4 c -3.27852,-1.76355 -5.56978,-0.59735 -7,3 -0.80789,3.13684 0.49617,6.45579 3.53653,6.89269" />
        <path
           style="fill:none;stroke:#73777a;stroke-width:1px;stroke-linecap:butt;stroke-linejoin:miter;stroke-opacity:1"
           id="path4047"
           d="m 391.001,506.84866 c -1.69103,-1.21296 -3.38205,0.92419 -5.07308,2.42922 l 3.53654,-3.89268 c 5.17217,4.75307 9.69378,9.91168 12,10 h 4 c 6.31299,-0.0471 6.52117,-1.88651 7.57077,-3.59575 2.02962,-3.48323 4.91769,-2.36138 6.51808,-0.42924 2.96808,3.19333 4.04405,-0.48919 5.91115,-1.97501 1.8671,-1.48582 4.19636,-1.48582 6.06346,0 1.8671,1.48582 2.94307,5.16834 5.91115,1.97501 1.60039,-1.93214 4.48846,-3.05399 6.51808,0.42924 1.0496,1.70924 1.25778,3.54863 7.57077,3.59575 h 4 c 2.30622,-0.0883 6.82783,-5.24693 12,-10 l 3.53654,3.89268 c -1.69103,-1.50503 -3.38205,-3.64218 -5.07308,-2.42922" />
        <path
           style="fill:none;stroke:#73777a;stroke-width:1px;stroke-linecap:butt;stroke-linejoin:miter;stroke-opacity:1"
           id="path4049"
           d="m 425.42747,502.98745 c -2.41544,-0.0888 -6.85089,4.52581 -10.14355,6.76975" />
      </g>
      <g
         id="g4051"
         transform="matrix(0.7660083,0,0,-0.7660083,395.14432,1012.3182)">
        <g
           style="stroke:#73777a;stroke-opacity:1"
           id="g4053">
          <g
             style="stroke:#73777a;stroke-opacity:1"
             id="g4055">
            <path
               style="fill:none;stroke:#73777a;stroke-width:1px;stroke-linecap:butt;stroke-linejoin:miter;stroke-opacity:1"
               id="path4057"
               transform="translate(5.5279208,5.095195)"
               d="m 438.42923,506.69425 c 1.0496,1.70924 1.25778,3.54864 7.57077,3.59575 h 4 c 2.30622,-0.0883 6.82783,-5.24692 12,-10 l 3.53654,3.89269 c -1.69103,-1.50503 -3.38205,-3.64218 -5.07308,-2.42923" />
            <path
               style="fill:none;stroke:#73777a;stroke-width:1px;stroke-linecap:butt;stroke-linejoin:miter;stroke-opacity:1"
               id="path4059"
               transform="translate(5.5279208,5.095195)"
               d="m 426.14043,497.8922 c 2.41544,-0.0888 6.85089,4.52581 10.14355,6.76974" />
          </g>
          <path
             style="fill:none;stroke:#73777a;stroke-width:1px;stroke-linecap:butt;stroke-linejoin:miter;stroke-opacity:1"
             id="path4061"
             transform="translate(5.5279208,5.095195)"
             d="m 435,504.29 5,-4 c 3.27852,-1.76355 5.56978,-0.59735 7,3 0.80789,3.13684 -0.49617,6.45579 -3.53653,6.89269" />
        </g>
        <path
           style="fill:none;stroke:#73777a;stroke-width:1px;stroke-linecap:butt;stroke-linejoin:miter;stroke-opacity:1"
           id="path4063"
           d="m 431.66835,502.98739 c 2.41544,-0.0888 6.85089,4.52581 10.14355,6.76975" />
        <path
           style="fill:none;stroke:#73777a;stroke-width:1px;stroke-linecap:butt;stroke-linejoin:miter;stroke-opacity:1"
           id="path4065"
           d="m 416.62745,509.3852 -5,-4 c -3.27852,-1.76355 -5.56978,-0.59735 -7,3 -0.80789,3.13684 0.49617,6.45579 3.53653,6.89269" />
        <path
           style="fill:none;stroke:#73777a;stroke-width:1px;stroke-linecap:butt;stroke-linejoin:miter;stroke-opacity:1"
           id="path4067"
           d="m 391.001,506.84866 c -1.69103,-1.21296 -3.38205,0.92419 -5.07308,2.42922 l 3.53654,-3.89268 c 5.17217,4.75307 9.69378,9.91168 12,10 h 4 c 6.31299,-0.0471 6.52117,-1.88651 7.57077,-3.59575 2.02962,-3.48323 4.91769,-2.36138 6.51808,-0.42924 2.96808,3.19333 4.04405,-0.48919 5.91115,-1.97501 1.8671,-1.48582 4.19636,-1.48582 6.06346,0 1.8671,1.48582 2.94307,5.16834 5.91115,1.97501 1.60039,-1.93214 4.48846,-3.05399 6.51808,0.42924 1.0496,1.70924 1.25778,3.54863 7.57077,3.59575 h 4 c 2.30622,-0.0883 6.82783,-5.24693 12,-10 l 3.53654,3.89268 c -1.69103,-1.50503 -3.38205,-3.64218 -5.07308,-2.42922" />
        <path
           style="fill:none;stroke:#73777a;stroke-width:1px;stroke-linecap:butt;stroke-linejoin:miter;stroke-opacity:1"
           id="path4069"
           d="m 425.42747,502.98745 c -2.41544,-0.0888 -6.85089,4.52581 -10.14355,6.76975" />
      </g>
      <path
         style="font-style:normal;font-weight:normal;font-size:16.3987px;font-family:'Book Antiqua';writing-mode:lr-tb;fill:#4d4d4d;fill-opacity:1;stroke:none"
         id="path4071"
         d="m 708.41647,544.03782 h -2.15288 v 3.90094 h -1.01204 l -5.82687,-4.10334 v -0.90164 h 5.82687 v -1.21444 h 1.01204 v 1.21444 h 2.15288 z m -3.16492,0 h -4.05427 l 4.05427,2.8153 z m 1.08564,-3.61879 -0.0981,-1.06111 c 0.49886,-0.09 0.86074,-0.2617 1.08563,-0.51522 0.2249,-0.25351 0.33735,-0.57859 0.33735,-0.97523 0,-0.33939 -0.0777,-0.63687 -0.23308,-0.89243 -0.15538,-0.25557 -0.36289,-0.46513 -0.62255,-0.6287 -0.25965,-0.16355 -0.61028,-0.30053 -1.0519,-0.41094 -0.44162,-0.1104 -0.89141,-0.16561 -1.34939,-0.16561 -0.0491,0 -0.12266,0.002 -0.2208,0.006 0.35166,0.22082 0.63687,0.52238 0.85562,0.9047 0.21877,0.38233 0.32815,0.79634 0.32815,1.24205 0,0.7442 -0.26987,1.37392 -0.80963,1.88913 -0.53974,0.51522 -1.25124,0.77283 -2.13447,0.77283 -0.91185,0 -1.64583,-0.26885 -2.20195,-0.80656 -0.5561,-0.53771 -0.83415,-1.21137 -0.83417,-2.02101 2e-5,-0.58473 0.15744,-1.11937 0.47229,-1.60392 0.31486,-0.48455 0.76364,-0.85256 1.34632,-1.10404 0.58269,-0.25147 1.42605,-0.37721 2.53008,-0.37721 1.14903,0 2.06395,0.12472 2.74477,0.37414 0.68083,0.24943 1.19911,0.62052 1.55485,1.11324 0.35575,0.49273 0.53363,1.07031 0.53363,1.73273 0,0.70331 -0.19526,1.27783 -0.58576,1.72353 -0.3905,0.4457 -0.93946,0.71354 -1.64686,0.8035 v 0 z m -3.9684,-4.52043 c -0.6338,0 -1.13675,0.16867 -1.50886,0.50601 -0.37209,0.33735 -0.55815,0.74319 -0.55815,1.21751 0,0.49069 0.20037,0.91799 0.60108,1.28192 0.40074,0.36392 0.92005,0.54589 1.55793,0.54589 0.57247,0 1.03759,-0.17277 1.39538,-0.51829 0.35779,-0.34553 0.53669,-0.7718 0.53669,-1.27885 0,-0.51112 -0.1789,-0.93127 -0.53669,-1.26045 -0.35779,-0.32916 -0.85358,-0.49374 -1.48738,-0.49374 z m 3.9684,-2.47183 -0.0981,-1.0611 c 0.49886,-0.09 0.86074,-0.2617 1.08563,-0.51522 0.2249,-0.25352 0.33735,-0.5786 0.33735,-0.97524 0,-0.33938 -0.0777,-0.63686 -0.23308,-0.89243 -0.15538,-0.25556 -0.36289,-0.46512 -0.62255,-0.62869 -0.25965,-0.16355 -0.61028,-0.30054 -1.0519,-0.41095 -0.44162,-0.1104 -0.89141,-0.16559 -1.34939,-0.1656 -0.0491,10e-6 -0.12266,0.002 -0.2208,0.006 0.35166,0.22081 0.63687,0.52238 0.85562,0.90471 0.21877,0.38232 0.32815,0.79634 0.32815,1.24204 0,0.7442 -0.26987,1.37391 -0.80963,1.88913 -0.53974,0.51522 -1.25124,0.77283 -2.13447,0.77283 -0.91185,0 -1.64583,-0.26886 -2.20195,-0.80657 -0.5561,-0.5377 -0.83415,-1.21137 -0.83417,-2.021 2e-5,-0.58473 0.15744,-1.11937 0.47229,-1.60392 0.31486,-0.48455 0.76364,-0.85256 1.34632,-1.10404 0.58269,-0.25148 1.42605,-0.37721 2.53008,-0.37722 1.14903,1e-5 2.06395,0.12472 2.74477,0.37415 0.68083,0.24944 1.19911,0.62052 1.55485,1.11324 0.35575,0.49273 0.53363,1.07031 0.53363,1.73273 0,0.70332 -0.19526,1.27782 -0.58576,1.72352 -0.3905,0.44571 -0.93946,0.71354 -1.64686,0.8035 v 0 z m -3.9684,-4.52043 c -0.6338,10e-6 -1.13675,0.16868 -1.50886,0.50602 -0.37209,0.33735 -0.55815,0.74319 -0.55815,1.21751 0,0.49069 0.20037,0.91799 0.60108,1.28191 0.40074,0.36393 0.92005,0.54589 1.55793,0.54589 0.57247,0 1.03759,-0.17276 1.39538,-0.51829 0.35779,-0.34551 0.53669,-0.7718 0.53669,-1.27884 0,-0.51113 -0.1789,-0.93128 -0.53669,-1.26044 -0.35779,-0.32917 -0.85358,-0.49375 -1.48738,-0.49376 z" />
      <path
         style="font-style:normal;font-weight:normal;font-size:16.3987px;font-family:'Book Antiqua';writing-mode:lr-tb;fill:#4d4d4d;fill-opacity:1;stroke:none"
         id="path4073"
         d="m 708.41647,628.28767 -8.99179,-3.45319 v -1.28191 l 8.99179,-3.68013 v 1.35552 l -2.7233,1.04883 v 3.75988 l 2.7233,0.9875 z m -3.6924,-2.59449 v -3.04838 l -2.49022,0.93844 c -0.75647,0.28623 -1.37801,0.49886 -1.8646,0.63789 0.57655,0.1145 1.14902,0.27601 1.71739,0.48455 z m 1.33712,-6.33596 -0.0982,-1.15924 c 0.56429,-0.0859 0.98853,-0.28521 1.27272,-0.59802 0.28419,-0.31281 0.42628,-0.69002 0.42628,-1.13164 0,-0.53157 -0.20036,-0.98137 -0.60108,-1.34939 -0.40073,-0.368 -0.9323,-0.55201 -1.59473,-0.55201 -0.62971,0 -1.12653,0.17685 -1.49046,0.53055 -0.36391,0.3537 -0.54588,0.81679 -0.54588,1.38925 0,0.35575 0.0808,0.67673 0.24228,0.96297 0.16152,0.28623 0.37108,0.51113 0.62868,0.67468 l -0.13494,1.03658 -4.61856,-0.87097 v -4.47135 h 1.05497 v 3.58812 l 2.41662,0.48455 c -0.37618,-0.53974 -0.56428,-1.10608 -0.56428,-1.69899 0,-0.78509 0.27192,-1.44752 0.81576,-1.98727 0.54384,-0.53975 1.24307,-0.80963 2.09767,-0.80963 0.81372,0 1.51704,0.23717 2.10994,0.71149 0.72786,0.57656 1.09178,1.3637 1.09178,2.36142 0,0.81781 -0.22899,1.48534 -0.68696,2.0026 -0.45797,0.51727 -1.06519,0.8127 -1.82166,0.8863 v 0 z m -4.43456,-12.72099 0.0859,1.09791 c -0.43343,0.0981 -0.74829,0.23717 -0.94456,0.41708 -0.31485,0.2985 -0.47228,0.66651 -0.47229,1.10404 1e-5,0.35166 0.0981,0.66038 0.29441,0.92617 0.25353,0.34757 0.62359,0.62153 1.11017,0.82189 0.48661,0.20037 1.1797,0.30464 2.07928,0.31281 -0.40481,-0.26578 -0.70535,-0.59086 -0.90163,-0.97524 -0.19627,-0.38436 -0.29441,-0.78713 -0.29441,-1.2083 0,-0.73602 0.2709,-1.36267 0.8127,-1.87993 0.5418,-0.51727 1.24204,-0.77589 2.10074,-0.7759 0.56429,10e-6 1.0887,0.12166 1.57326,0.36495 0.48454,0.2433 0.85563,0.57757 1.11324,1.00283 0.2576,0.42527 0.38641,0.90777 0.38641,1.44752 0,0.92004 -0.33837,1.67037 -1.01511,2.25102 -0.67673,0.58064 -1.79201,0.87096 -3.34585,0.87095 -1.73783,10e-6 -3.00135,-0.32098 -3.79053,-0.96296 -0.68695,-0.5602 -1.03043,-1.31462 -1.03045,-2.26328 2e-5,-0.7074 0.19833,-1.28702 0.59496,-1.73886 0.39665,-0.45184 0.94457,-0.72274 1.6438,-0.8127 v 0 z m 3.8764,4.50816 c 0.38028,0 0.7442,-0.0808 1.09177,-0.24227 0.34757,-0.16151 0.61233,-0.38743 0.7943,-0.67776 0.18196,-0.29032 0.27294,-0.59495 0.27294,-0.9139 0,-0.46615 -0.18809,-0.86687 -0.56428,-1.20217 -0.3762,-0.3353 -0.88733,-0.50295 -1.53339,-0.50296 -0.62153,10e-6 -1.1112,0.16561 -1.46899,0.49682 -0.35779,0.33122 -0.53668,0.7483 -0.53668,1.25124 0,0.49887 0.17889,0.92209 0.53668,1.26965 0.35779,0.34757 0.82701,0.52135 1.40765,0.52135 z" />
      <path
         style="fill:none;stroke:#c8cbc0;stroke-width:1.22561;stroke-linecap:butt;stroke-linejoin:miter;stroke-miterlimit:4;stroke-dasharray:none;stroke-opacity:1"
         id="path4075"
         d="m 688.35176,559.69853 h 70.10973" />
      <path
         style="fill:none;stroke:#c8cbc0;stroke-width:1.22561;stroke-linecap:butt;stroke-linejoin:miter;stroke-miterlimit:4;stroke-dasharray:none;stroke-opacity:1"
         id="path4077"
         d="m 688.35199,556.32809 h 70.10973" />
      <path
         style="fill:none;stroke:#c8cbc0;stroke-width:1.22561;stroke-linecap:butt;stroke-linejoin:miter;stroke-miterlimit:4;stroke-dasharray:none;stroke-opacity:1"
         id="path4079"
         d="m 688.35199,599.13232 h 70.10973" />
      <path
         style="fill:none;stroke:#c8cbc0;stroke-width:1.22561;stroke-linecap:butt;stroke-linejoin:miter;stroke-miterlimit:4;stroke-dasharray:none;stroke-opacity:1"
         id="path4081"
         d="m 688.35222,595.76189 h 70.10973" />
    </g>
    <g
       id="g3175"
       transform="matrix(0.26458333,0,0,0.26458333,14.194352,-242.77516)">
      <rect
         style="fill:#ffffff"
         id="rect3744"
         y="968.02771"
         x="-14.742744"
         height="8.214818"
         width="26.287418" />
      <rect
         style="fill:#dc143c"
         id="rect3746"
         y="976.24249"
         x="-14.742744"
         height="8.214818"
         width="26.287418" />
    </g>
  </g>
</svg>
